<?xml version="1.0" encoding="UTF-8" standalone="no"?>
<!DOCTYPE svg PUBLIC "-//W3C//DTD SVG 1.1//EN" "http://www.w3.org/Graphics/SVG/1.1/DTD/svg11.dtd">
<svg version="1.1" xmlns="http://www.w3.org/2000/svg" xmlns:xlink="http://www.w3.org/1999/xlink" preserveAspectRatio="xMidYMid meet" viewBox="0 0 640 640" width="640" height="640"><defs><path d="M640 320C640 496.61 496.61 640 320 640C143.39 640 0 496.61 0 320C0 143.39 143.39 0 320 0C496.61 0 640 143.39 640 320Z" id="g6bSzc54eB"></path><path d="M560 422.36C560 536.8 452.46 629.72 320 629.72C187.54 629.72 80 536.8 80 422.36C80 307.92 187.54 215 320 215C452.46 215 560 307.92 560 422.36Z" id="bofC0GJEv"></path><path d="M160.15 44L102.22 349.65L284.52 222.96L160.15 44Z" id="b2Jz9QyFkh"></path><path d="M478.98 44L540 349.05L356.43 224.21L478.98 44Z" id="a1jBooNe5Q"></path><path d="M278.25 419.15C289.68 461.8 276.77 502.37 249.44 509.69C222.11 517.01 190.64 488.33 179.22 445.68C167.79 403.03 180.7 362.46 208.03 355.14C235.36 347.82 266.83 376.5 278.25 419.15Z" id="f2Xzbh8x1Z"></path><path d="M460.78 445.68C449.36 488.33 417.89 517.01 390.56 509.69C363.23 502.37 350.32 461.8 361.75 419.15C373.17 376.5 404.64 347.82 431.97 355.14C459.3 362.46 472.21 403.03 460.78 445.68Z" id="e2fECKzj2k"></path></defs><g><g><g><use xlink:href="#g6bSzc54eB" opacity="1" fill="#ff6600" fill-opacity="1"></use></g><g><use xlink:href="#bofC0GJEv" opacity="1" fill="#000000" fill-opacity="1"></use></g><g><use xlink:href="#b2Jz9QyFkh" opacity="1" fill="#000000" fill-opacity="1"></use></g><g><use xlink:href="#a1jBooNe5Q" opacity="1" fill="#000000" fill-opacity="1"></use></g><g><use xlink:href="#f2Xzbh8x1Z" opacity="1" fill="#36c318" fill-opacity="1"></use></g><g><use xlink:href="#e2fECKzj2k" opacity="1" fill="#36c318" fill-opacity="1"></use></g></g></g></svg>